Coordinates
version=1
nRows=4
nColumns=124
inDegrees=yes

Units are S.I. units (second, meters, Newtons, ...)
If the header above contains a line with 'inDegrees', this indicates whether rotational values are in degrees (yes) or radians (no).

endheader 
time	pelvis_tilt	pelvis_list	pelvis_rotation	pelvis_tx	pelvis_ty	pelvis_tz	hip_flexion_l	hip_adduction_l	hip_rotation_l	hip_flexion_r	hip_adduction_r	hip_rotation_r	knee_angle_l	knee_angle_r	ankle_angle_l	ankle_angle_r	subtalar_angle_l	subtalar_angle_r	mtp_angle_l	mtp_angle_r	lumbar_extension	lumbar_bending	lumbar_rotation	arm_flex_l	arm_add_l	arm_rot_l	arm_flex_r	arm_add_r	arm_rot_r	elbow_flex_l	elbow_flex_r	glut_med1_l/activation	glut_med2_l/activation	glut_med3_l/activation	glut_min1_l/activation	glut_min2_l/activation	glut_min3_l/activation	semimem_l/activation	semiten_l/activation	bifemlh_l/activation	bifemsh_l/activation	sar_l/activation	add_long_l/activation	add_brev_l/activation	add_mag1_l/activation	add_mag2_l/activation	add_mag3_l/activation	tfl_l/activation	pect_l/activation	grac_l/activation	glut_max1_l/activation	glut_max2_l/activation	glut_max3_l/activation	iliacus_l/activation	psoas_l/activation	quad_fem_l/activation	gem_l/activation	peri_l/activation	rect_fem_l/activation	vas_med_l/activation	vas_int_l/activation	vas_lat_l/activation	med_gas_l/activation	lat_gas_l/activation	soleus_l/activation	tib_post_l/activation	flex_dig_l/activation	flex_hal_l/activation	tib_ant_l/activation	per_brev_l/activation	per_long_l/activation	per_tert_l/activation	ext_dig_l/activation	ext_hal_l/activation	ercspn_l/activation	intobl_l/activation	extobl_l/activation	glut_med1_r/activation	glut_med2_r/activation	glut_med3_r/activation	glut_min1_r/activation	glut_min2_r/activation	glut_min3_r/activation	semimem_r/activation	semiten_r/activation	bifemlh_r/activation	bifemsh_r/activation	sar_r/activation	add_long_r/activation	add_brev_r/activation	add_mag1_r/activation	add_mag2_r/activation	add_mag3_r/activation	tfl_r/activation	pect_r/activation	grac_r/activation	glut_max1_r/activation	glut_max2_r/activation	glut_max3_r/activation	iliacus_r/activation	psoas_r/activation	quad_fem_r/activation	gem_r/activation	peri_r/activation	rect_fem_r/activation	vas_med_r/activation	vas_int_r/activation	vas_lat_r/activation	med_gas_r/activation	lat_gas_r/activation	soleus_r/activation	tib_post_r/activation	flex_dig_r/activation	flex_hal_r/activation	tib_ant_r/activation	per_brev_r/activation	per_long_r/activation	per_tert_r/activation	ext_dig_r/activation	ext_hal_r/activation	ercspn_r/activation	intobl_r/activation	extobl_r/activation	
          0.25318878	         -7.36905297	         -2.64310328	         -6.60090739	          0.33336487	          0.92087723	          0.00318144	         25.35808816	         -2.60621572	         -7.41555870	          5.49311514	          5.67235001	         12.95568548	        -61.78318977	          4.76613493	         12.02007669	          0.30709151	          2.89288507	        -17.13826090	          3.21155630	          0.85553145	          2.48485042	          7.51132975	         -4.30073364	          1.66365890	        -13.48117162	         18.70458175	         -7.48369324	        -13.57706423	         -1.52409541	         61.32998423	         19.38326434	          0.05000386	          0.05000358	          0.05000284	          0.05002042	          0.05001927	          0.05001184	          0.05000399	          0.05000240	          0.05000126	          0.33381726	          0.33256879	          0.14512515	          0.08616881	          0.05000778	          0.05000568	          0.05000189	          0.57298866	          0.28190340	          0.12518198	          0.05000470	          0.05000202	          0.05000148	          0.13591921	          0.14324009	          0.11355719	          0.50445042	          0.05001218	          0.05010494	          0.05000412	          0.05000399	          0.05000318	          0.05000145	          0.05000292	          0.05000045	          0.05000301	          0.05001731	          0.05001205	          0.36630630	          0.19446871	          0.06416580	          0.68721138	          0.46075396	          0.67006063	          0.09580558	          0.18916016	          0.05000796	          0.20375916	          0.23935038	          0.31882313	          0.44773636	          0.47026699	          0.44812773	          0.14352716	          0.19052090	          0.09167094	          0.92781264	          0.10773722	          0.05000806	          0.05000901	          0.05003837	          0.05005570	          0.05001943	          0.07954026	          0.05004706	          0.05004899	          0.12689005	          0.06415410	          0.05001542	          0.08834211	          0.27591733	          0.05002334	          0.05069407	          0.68071351	          0.05000244	          0.05004233	          0.05003971	          0.05003551	          0.05042451	          0.05042441	          0.05042506	          0.05042341	          0.05042441	          0.05042469	          0.05042535	          0.05042547	          0.05042527	          0.05042513	          0.05042519	          0.05042506	          0.05686478	          0.05000203	          0.05000394	
          0.29538691	         -7.46075490	         -1.72755433	         -8.88229292	          0.38169606	          0.91970749	          0.00545620	         31.85600819	         -2.38738109	         -8.32448791	          0.67604340	          3.99658279	         13.88698579	        -56.45315895	          8.29648264	         14.42491530	          1.06946343	          0.57232417	        -16.51195996	          1.76601426	          1.32022558	          2.20034558	          7.07103604	         -3.35850795	          2.99120395	        -13.46377179	         18.29422102	         -2.77556195	        -13.46579879	          0.89536011	         50.39756972	         30.19043802	          0.05000354	          0.05000576	          0.05000748	          0.05001735	          0.05001661	          0.05001613	          0.05000207	          0.05000203	          0.05000118	          0.19598477	          0.32684053	          0.08521289	          0.05059442	          0.05001097	          0.05000661	          0.05000249	          0.41752138	          0.16552951	          0.07349683	          0.05000630	          0.05000318	          0.05000233	          0.17631857	          0.18805570	          0.08514817	          0.34293602	          0.24943365	          0.05000866	          0.05000898	          0.05000771	          0.05000399	          0.05000177	          0.05000366	          0.05000099	          0.05000656	          0.05003199	          0.05002402	          0.39399604	          0.22625008	          0.10421231	          0.49449983	          0.41292114	          0.47628677	          0.09321130	          0.15375089	          0.07806549	          0.25673411	          0.24612402	          0.33393890	          0.39405908	          0.49362074	          0.56072636	          0.15951319	          0.20634415	          0.10744669	          0.95492119	          0.11984639	          0.05001064	          0.05001309	          0.05003731	          0.05007599	          0.05001880	          0.05009476	          0.05005210	          0.05027033	          0.07452065	          0.05001805	          0.05001416	          0.15180344	          0.34457859	          0.05004531	          0.05089979	          0.82029291	          0.05000190	          0.05003202	          0.05003003	          0.05002752	          0.05042440	          0.05042430	          0.05042498	          0.05042338	          0.05042442	          0.05042469	          0.05042542	          0.05042533	          0.05042512	          0.05042512	          0.05042522	          0.05042511	          0.05000185	          0.05000282	          0.05000386	
          0.33758504	         -7.65607348	         -1.23851552	        -11.15969915	          0.43090827	          0.91586838	          0.00789420	         36.20235595	         -3.18922575	         -8.90327033	         -3.21124219	          2.73486603	         13.58887792	        -46.87593451	         10.04320988	         14.29290399	          2.76365377	         -1.10447349	        -14.09440952	          0.97309479	          2.47420956	          1.94564091	          6.92866710	         -2.21683338	          3.82698422	        -13.47557414	         18.58758524	          2.22707164	        -13.46927805	          5.17914224	         39.29875333	         40.66051369	          0.05001245	          0.05002298	          0.05003558	          0.05007459	          0.05027557	          0.10236017	          0.05000100	          0.05000207	          0.05000112	          0.11506803	          0.67868913	          0.05003088	          0.05000417	          0.05000396	          0.05000357	          0.05000201	          0.40890854	          0.09719535	          0.05000606	          0.05001109	          0.05000455	          0.05000199	          0.29598514	          0.27474193	          0.05001524	          0.50654050	          0.60740601	          0.05000571	          0.05000302	          0.05000263	          0.05000150	          0.05000496	          0.05001000	          0.05000326	          0.05001441	          0.05005813	          0.05005139	          0.40386157	          0.24452114	          0.12612155	          0.29274785	          0.44217447	          0.28525587	          0.09231088	          0.20795815	          0.05000401	          0.27267189	          0.36762930	          0.41261163	          0.34797021	          0.45531383	          0.68709049	          0.12559080	          0.14159485	          0.07604296	          0.56068547	          0.07047491	          0.05000901	          0.05001328	          0.05003880	          0.05009171	          0.05004127	          0.14094746	          0.05004520	          0.05006635	          0.10098408	          0.05066262	          0.05004769	          0.08913796	          0.31605650	          0.05014334	          0.14494643	          0.94325443	          0.05000484	          0.05006734	          0.05006382	          0.05006111	          0.05042428	          0.05042419	          0.05042498	          0.05042340	          0.05042442	          0.05042470	          0.05042545	          0.05042529	          0.05042509	          0.05042511	          0.05042522	          0.05042513	          0.05363279	          0.05000199	          0.05000560	
          0.37978318	         -7.94270040	         -1.01653640	        -13.15500751	          0.48212693	          0.91093616	          0.01009519	         38.89763899	         -4.68173955	         -9.38827421	         -6.28550974	          1.82927995	         11.84678382	        -35.78540918	         10.09816473	         13.21798960	          4.89363667	         -2.32577987	        -10.31282412	          0.53810462	          4.73093881	          1.78997400	          6.81488112	         -0.88614025	          3.80529198	        -13.46379677	         19.27920574	          7.55013865	        -13.47182010	         10.05477191	         29.34478023	         48.93281203	          0.05000431	          0.05001699	          0.25747372	          0.05002070	          0.05004220	          0.06013013	          0.05000128	          0.05000240	          0.05000141	          0.14674600	          0.49859838	          0.05000451	          0.05000364	          0.05000347	          0.05000312	          0.05000193	          0.24008129	          0.05708290	          0.05000768	          0.05001212	          0.05000565	          0.05000212	          0.25466647	          0.24704557	          0.05032796	          0.42825026	          0.53538409	          0.05000438	          0.05000281	          0.05000247	          0.05000144	          0.05000988	          0.05001819	          0.05000332	          0.05001227	          0.05006996	          0.05005628	          0.40694044	          0.22420587	          0.14394753	          0.24742413	          0.49274645	          0.17930149	          0.09805270	          0.24378176	          0.05000579	          0.16010164	          0.47749598	          0.39709253	          0.20470875	          0.71054824	          0.76710182	          0.15060682	          0.15194919	          0.10251601	          0.47098948	          0.14212503	          0.05000591	          0.05000851	          0.05002333	          0.05006335	          0.05003591	          0.09626814	          0.05002881	          0.05002639	          0.21715196	          0.17959639	          0.05027941	          0.16536693	          0.58753165	          0.26501159	          0.12428451	          0.78834686	          0.05000557	          0.05008750	          0.05008292	          0.05007803	          0.05042415	          0.05042407	          0.05042489	          0.05042352	          0.05042450	          0.05042474	          0.05042553	          0.05042513	          0.05042495	          0.05042509	          0.05042525	          0.05042521	          0.05001431	          0.05000173	          0.05000447	
